<svg width="13" height="12" viewBox="0 0 13 12" fill="none" xmlns="http://www.w3.org/2000/svg">
<path d="M5.5625 0.5H7.4375C8.162 0.5 8.75 1.088 8.75 1.8125V2.75H11.1875C11.912 2.75 12.5 3.338 12.5 4.0625V10.4375C12.5 10.7856 12.3617 11.1194 12.1156 11.3656C11.8694 11.6117 11.5356 11.75 11.1875 11.75H1.8125C1.4644 11.75 1.13056 11.6117 0.884422 11.3656C0.638281 11.1194 0.5 10.7856 0.5 10.4375V4.0625C0.5 3.338 1.088 2.75 1.8125 2.75H4.25V1.8125C4.25 1.088 4.838 0.5 5.5625 0.5ZM3.125 7.625C2.5887 7.62516 2.06522 7.46105 1.625 7.15475V10.4375C1.625 10.541 1.709 10.625 1.8125 10.625H11.1875C11.2372 10.625 11.2849 10.6052 11.3201 10.5701C11.3552 10.5349 11.375 10.4872 11.375 10.4375V7.15475C10.9348 7.46105 10.4113 7.62516 9.875 7.625H3.125ZM1.8125 3.875C1.76277 3.875 1.71508 3.89475 1.67992 3.92992C1.64475 3.96508 1.625 4.01277 1.625 4.0625V5C1.625 5.39782 1.78304 5.77936 2.06434 6.06066C2.34564 6.34196 2.72718 6.5 3.125 6.5H9.875C10.2728 6.5 10.6544 6.34196 10.9357 6.06066C11.217 5.77936 11.375 5.39782 11.375 5V4.0625C11.375 4.01277 11.3552 3.96508 11.3201 3.92992C11.2849 3.89475 11.2372 3.875 11.1875 3.875H1.8125ZM7.625 2.75V1.8125C7.625 1.76277 7.60525 1.71508 7.57008 1.67992C7.53492 1.64475 7.48723 1.625 7.4375 1.625H5.5625C5.51277 1.625 5.46508 1.64475 5.42992 1.67992C5.39475 1.71508 5.375 1.76277 5.375 1.8125V2.75H7.625Z" fill="#989898"/>
</svg>
